<?xml version="1.0" encoding="UTF-8" standalone="no"?>
<svg
   xmlns:dc="http://purl.org/dc/elements/1.1/"
   xmlns:cc="http://creativecommons.org/ns#"
   xmlns:rdf="http://www.w3.org/1999/02/22-rdf-syntax-ns#"
   xmlns:svg="http://www.w3.org/2000/svg"
   xmlns="http://www.w3.org/2000/svg"
   viewBox="0 0 499.64001 657.53333"
   height="657.53333"
   width="499.64001"
   xml:space="preserve"
   id="svg2"
   version="1.1"><metadata
     id="metadata8"><rdf:RDF><cc:Work
         rdf:about=""><dc:format>image/svg+xml</dc:format><dc:type
           rdf:resource="http://purl.org/dc/dcmitype/StillImage" /></cc:Work></rdf:RDF></metadata><defs
     id="defs6" /><g
     transform="matrix(1.3333333,0,0,-1.3333333,0,657.53333)"
     id="g10"><g
       transform="scale(0.1)"
       id="g12"><path
         id="path14"
         style="fill:#100f0d;fill-opacity:1;fill-rule:nonzero;stroke:none"
         d="m 3713.2,2857.46 c -96.29,35.3 -186.5,69.14 -277.33,101.26 -36.46,12.89 -25.01,39.9 -20.84,63.32 32.75,183.81 28.33,367.91 -9.48,549.31 -115.8,555.45 -456.53,904.44 -1003.24,1035.89 -482.81,116.08 -924.22,12.93 -1296.07,-326.67 -224.802,-205.28 -333.963,-471.36 -377.373,-769.56 -28.379,-194.91 2.731,-380.51 59.582,-565.4 34.211,-111.26 -30.058,-210.4 -137.781,-219.92 -71.719,-6.33 -124.93,29.1 -148.848,102.1 -250.3,763.77 90.2,1703.85 1004.25,2003.5 462.63,151.67 921.57,134.87 1363.19,-75.37 421.88,-200.84 695.2,-533.01 816.86,-985.86 75.47,-280.88 70.42,-566.43 41.77,-852.73 -1.81,-17.75 -8.46,-35.01 -14.69,-59.87" /><path
         id="path16"
         style="fill:#100f0d;fill-opacity:1;fill-rule:nonzero;stroke:none"
         d="m 1988.17,1622.94 c -149.22,294.72 -425.01,350.9 -639.87,292.02 -209.84,-57.51 -349.87,-254.61 -351.542,-492.69 -1.68,-239.61 136.042,-432.258 360.872,-495.379 132.39,-37.141 263.78,-28.301 387.88,36.578 123.21,64.381 203.71,166.881 255.98,301.731 60.19,-80.7 117,-153.89 169.41,-230.14 8.54,-12.41 3.78,-41.81 -5.24,-57.279 -97.38,-166.84 -247,-267.621 -430.04,-313.402 -294.91,-73.727 -571.3,-35.098 -800.46,179.793 -232.121,217.648 -297.39,570.058 -175.18,884.918 112.098,288.82 380.23,470.65 706.72,480.89 236.72,7.43 447.06,-55.64 615.9,-228.81 87.39,-89.63 86.01,-90.74 15.99,-193.62 -35.74,-52.53 -70.83,-105.53 -110.42,-164.61" /><path
         id="path18"
         style="fill:#100f0d;fill-opacity:1;fill-rule:nonzero;stroke:none"
         d="m 2989.48,2229.52 c -64.48,-94.72 -123.15,-181.75 -182.7,-268.15 -103.37,-150.03 -205.96,-300.63 -312,-448.77 -23.9,-33.4 -19.51,-54.58 1.7,-85.1 317.21,-456.27 633.38,-913.301 949.7,-1370.168 9.98,-14.4023 18.97,-29.4922 36.69,-57.160125 -123.89,0 -236.17,-0.859375 -348.39,1.218755 -12.44,0.23046 -28.1,14.99997 -36.31,27.07817 C 2779.77,497.16 2461.79,966.18 2145.46,1436.3 c -9.65,14.34 -9.68,46.76 0.09,60.81 162.37,233.3 326.51,465.37 492.22,696.31 12.53,17.46 39.49,33.64 60.4,34.51 92.76,3.69 185.77,1.59 291.31,1.59" /><path
         id="path20"
         style="fill:#100f0d;fill-opacity:1;fill-rule:nonzero;stroke:none"
         d="m 3592.25,658.859 c -97.85,0 -200.91,0 -314.39,0 0,522.731 0,1044.901 0,1571.581 97.16,0 199.9,0 314.39,0 0,-523.26 0,-1045.44 0,-1571.581" /><path
         id="path22"
         style="fill:#100f0d;fill-opacity:1;fill-rule:nonzero;stroke:none"
         d="m 425.02,2154.51 c 4.449,-64.73 -0.852,-126.37 -63.36,-163.78 -92.172,-55.17 -203.691,4.69 -217.89,115.63 -11.77,91.95 -16.981,185.43 -37.532,275.37 -15.5778,68.14 -48.5505,132.79 -77.9099,197.12 C 7.36719,2624.81 -10,2668.57 6.66016,2720.18 26.4492,2781.41 73,2827.59 128.559,2831.39 c 59.769,4.07 99.699,-29.07 127.859,-77.96 C 363.23,2568 414.59,2366.84 425.02,2154.51" /><path
         id="path24"
         style="fill:#ec1d27;fill-opacity:1;fill-rule:nonzero;stroke:none"
         d="m 3364.7,2868.9 c 98.69,-37.2 192.17,-70.88 283.89,-108.82 12.71,-5.26 26.12,-33.43 23.28,-47.85 -23.06,-116.83 -49.08,-233.12 -76.85,-348.95 -2.98,-12.44 -22.64,-29.46 -34.92,-29.79 -97.87,-2.44 -195.82,-1.37 -300.84,-1.37 -5.57,186.89 33.63,360.6 105.44,536.78" /></g></g></svg>